# xmcd CD database file
# Copyright (C) 1997 Ti Kan
# 
# Track frame offsets:
#     145865
#     165322
#     182387
#     197892
#     211892
#     227452
#     247722
#     261500
#     273700
#     286012
# 
# Disc length: 4051 seconds
# 
# Revision: 1
# Processed by: cddbd v1.4b41PL1 Copyright (c) Steve Scherf et al.
# Submitted via: DiscPlay 4.0.3
# 
DISCID=92083b0a
DTITLE=Gildor Roy - Plein l'dos
DYEAR=1900
DGENRE=
TTITLE0=Hey grand boss
TTITLE1=Lolita
TTITLE2=Plein l'dos
TTITLE3=Fait divers
TTITLE4=Un bon citoyen
TTITLE5=Emm ne-moi
TTITLE6=Tout n'est pas perdu
TTITLE7=Fais un homme de moi
TTITLE8=Du ben bon monde
TTITLE9=Dans l'escalier
EXTD=
EXTT0=
EXTT1=
EXTT2=
EXTT3=
EXTT4=
EXTT5=
EXTT6=
EXTT7=
EXTT8=
EXTT9=
PLAYORDER=
